<svg width="18" height="18" viewBox="0 0 18 18" fill="none" xmlns="http://www.w3.org/2000/svg">
<path d="M14.345 8.77212C14.345 8.59697 14.2715 8.42746 14.1415 8.30316L10.4294 4.59104C10.2825 4.44979 10.13 4.38763 9.97177 4.38763C9.61016 4.38763 9.35025 4.64189 9.35025 4.98655C9.35025 5.16735 9.42371 5.3199 9.53671 5.4329L10.808 6.72113L12.4465 8.21841L11.1357 8.13931H4.28775C3.9092 8.13931 3.64929 8.39921 3.64929 8.77212C3.64929 9.13938 3.9092 9.39928 4.28775 9.39928H11.1357L12.4465 9.32018L10.808 10.8175L9.53671 12.1057C9.42371 12.2187 9.35025 12.3712 9.35025 12.552C9.35025 12.8967 9.61016 13.151 9.97177 13.151C10.13 13.151 10.2825 13.0888 10.4181 12.9589L14.1415 9.23543C14.2715 9.11113 14.345 8.94162 14.345 8.77212Z" fill="#1B676A"/>
</svg>
