<svg width="19" height="18" viewBox="0 0 19 18" fill="none" xmlns="http://www.w3.org/2000/svg">
<path d="M14.845 8.77211C14.845 8.59696 14.7716 8.42746 14.6416 8.30315L10.9295 4.59103C10.7826 4.44978 10.63 4.38763 10.4718 4.38763C10.1102 4.38763 9.85032 4.64188 9.85032 4.98654C9.85032 5.16734 9.92377 5.3199 10.0368 5.4329L11.308 6.72112L12.9466 8.2184L11.6358 8.1393H4.78782C4.40926 8.1393 4.14935 8.39921 4.14935 8.77211C4.14935 9.13937 4.40926 9.39928 4.78782 9.39928H11.6358L12.9466 9.32017L11.308 10.8175L10.0368 12.1057C9.92377 12.2187 9.85032 12.3712 9.85032 12.552C9.85032 12.8967 10.1102 13.1509 10.4718 13.1509C10.63 13.1509 10.7826 13.0888 10.9182 12.9588L14.6416 9.23542C14.7716 9.11112 14.845 8.94162 14.845 8.77211Z" fill="white"/>
</svg>
