<svg width="18" height="18" viewBox="0 0 18 18" fill="none" xmlns="http://www.w3.org/2000/svg">
<path d="M3.65492 9.22782C3.65492 9.40297 3.72838 9.57247 3.85833 9.69678L7.57045 13.4089C7.71735 13.5502 7.86991 13.6123 8.02811 13.6123C8.38972 13.6123 8.64962 13.358 8.64962 13.0134C8.64962 12.8326 8.57617 12.68 8.46317 12.567L7.19189 11.2788L5.55336 9.78153L6.86419 9.86063H13.7121C14.0907 9.86063 14.3506 9.60073 14.3506 9.22782C14.3506 8.86056 14.0907 8.60066 13.7121 8.60066H6.86419L5.55336 8.67976L7.19189 7.18248L8.46317 5.89425C8.57617 5.78125 8.64962 5.6287 8.64962 5.44789C8.64962 5.10324 8.38972 4.84898 8.02811 4.84898C7.86991 4.84898 7.71735 4.91113 7.58175 5.04109L3.85833 8.76451C3.72838 8.88881 3.65492 9.05831 3.65492 9.22782Z" fill="white"/>
</svg>
